<svg id="Слой_1" data-name="Слой 1" xmlns="http://www.w3.org/2000/svg" xmlns:xlink="http://www.w3.org/1999/xlink" viewBox="0 0 512 512"><defs><style>.cls-1{fill:none;}.cls-2{clip-path:url(#clip-path);}.cls-3,.cls-6{fill:#fcbf34;}.cls-4{fill:#f1891e;}.cls-5{fill:#fff;}.cls-6{font-size:72.89px;font-family:ArialRoundedMTBold, Arial Rounded MT Bold;}.cls-7{letter-spacing:-0.04em;}</style><clipPath id="clip-path"><rect class="cls-1" x="78.09" y="41.7" width="367.52" height="367.52" rx="70"/></clipPath></defs><g id="_3" data-name="3"><g class="cls-2"><rect class="cls-3" x="78.09" y="41.7" width="367.52" height="367.52" rx="13.94"/><path class="cls-4" d="M416.88,382.1c-1.79,57.66-48.61,105-106.24,107.36a110.65,110.65,0,0,1-79.51-28.89c-24.3,12.57-53.79,16.54-84.47,7.53a107.8,107.8,0,0,1-74.09-77.45,115.21,115.21,0,0,1,0-56.65,114.35,114.35,0,0,1-5-121.63,113.9,113.9,0,0,1-34.85-88.63C35.94,64.93,84.57,17.55,143.44,15.81a114.36,114.36,0,0,1,116,134.46,107.39,107.39,0,0,0,9.47,67.53,113.78,113.78,0,0,1,12.19,51.43c0,.39,0,.76,0,1.16a109.76,109.76,0,0,1,24.88-2.82A111,111,0,0,1,416.88,382.1Z"/><path class="cls-5" d="M371.21,189.47a80.4,80.4,0,0,1-8.63,36.31c-5.53,11-5.49,23.7-1.12,35.16a78.51,78.51,0,0,1,4.84,34.64c-3.23,39.06-35.88,70.27-75,71.84A79.54,79.54,0,0,1,271,365.65c-12.55-2.76-25.52-3.22-37.94.06-26.67,7.07-79.14,15.64-150.56,2a113.19,113.19,0,0,0-37.12-1.34A117,117,0,0,1,29,367.49a115.25,115.25,0,0,1-77.78-30.06C-66.58,605,6.43,593.59,6.43,593.59c24.18-2.4,36.9-21.45,43.55-42.17,8.6-26.67,48.37-16.69,42.64,10.78-.1.46-.19.92-.33,1.39-6.84,30.19-36.66,57.66-50,63.62-8.65,3.84-35.47,17.43-70-2.36-58.12-33.38-76.53-119.2-55.3-344.29a115.7,115.7,0,0,1-3.18-38.7c4.7-55.56,49.71-100.53,105.27-105.15a115.34,115.34,0,0,1,92.38,34.18c22,22.44,54.66,31.15,84.07,20.06,5.89-2.23,10.7-4.46,13.92-6.06a79.3,79.3,0,0,1,8.18-31.12c-26.26-27.6-3.7-63.72-3.7-63.72s29.09,0,47.91,23.63a80.93,80.93,0,0,1,60,1.3c18.68-20.3,44.94-20.3,44.94-20.3s21.83,34.91-2.4,62.33A80.05,80.05,0,0,1,371.21,189.47Z"/><path class="cls-3" d="M272.56,164a24.75,24.75,0,0,1-.94,13.31c-.85.8-9.22,8.44-18.4,6-5.83-1.58-9.21-6.49-12-10.47a36.72,36.72,0,0,1-5.42-12.19c5-10.35,15.54-15.4,23.85-12.92C269.51,150.6,272.33,162.87,272.56,164Z"/><ellipse class="cls-5" cx="267.58" cy="166.53" rx="8.46" ry="11.28"/><path class="cls-3" d="M310.63,163.17a24.73,24.73,0,0,0,.95,13.31c.85.8,9.21,8.44,18.4,6,5.83-1.58,9.21-6.49,11.95-10.47a36.58,36.58,0,0,0,5.43-12.19c-5-10.35-15.54-15.4-23.85-12.92C313.68,149.79,310.87,162.06,310.63,163.17Z"/><ellipse class="cls-5" cx="315.62" cy="165.72" rx="8.46" ry="11.28"/></g><text class="cls-6" transform="translate(102.28 478.83)">MUR<tspan class="cls-7" x="168.53" y="0">KO</tspan><tspan x="274.66" y="0">T</tspan></text></g></svg>